<svg id="Layer_1" data-name="Layer 1" xmlns="http://www.w3.org/2000/svg" viewBox="0 0 89.9 34"><defs><style>.cls-1{fill:#fff;}.cls-2{font-size:12px;fill:#f9f7f7;font-family:MyriadPro-Regular, Myriad Pro;}.cls-3{letter-spacing:0.01em;}.cls-4{letter-spacing:0em;}</style></defs><title>logo</title><path class="cls-1" d="M17,39A17,17,0,1,0,0,22,17,17,0,0,0,17,39Zm5.3-26.08c.26-.92-.63-1.46-1.44-.88L9.51,20.12c-.88.63-.74,1.88.21,1.88h3v0h5.82l-4.74,1.67L11.7,31.08c-.26.92.63,1.46,1.44.88l11.35-8.08c.88-.63.74-1.88-.21-1.88H19.75Z" transform="translate(0 -5)"/><text class="cls-2" transform="translate(39.14 18.75)"><tspan class="cls-3">G</tspan><tspan x="7.81" y="0">old</tspan><tspan class="cls-4" x="24" y="0">S</tspan><tspan x="29.88" y="0">tack</tspan></text></svg>